<?xml version="1.0" encoding="UTF-8"?>
<svg xmlns="http://www.w3.org/2000/svg" xmlns:xlink="http://www.w3.org/1999/xlink" width="436.52pt" height="161.2pt" viewBox="0 0 436.52 161.2" version="1.1">
<defs>
<clipPath id="clip1">
  <path d="M 0 0 L 436.519531 0 L 436.519531 161.199219 L 0 161.199219 Z M 0 0 "/>
</clipPath>
</defs>
<g id="surface1">
<g clip-path="url(#clip1)" clip-rule="nonzero">
<path style=" stroke:none;fill-rule:nonzero;fill:rgb(4.699707%,4.699707%,8.999634%);fill-opacity:1;" d="M 436.519531 161.199219 L 0 161.199219 L 0 -0.00390625 L 436.519531 -0.00390625 L 436.519531 161.199219 "/>
</g>
<path style=" stroke:none;fill-rule:evenodd;fill:rgb(98.399353%,85.899353%,16.499329%);fill-opacity:1;" d="M 80.046875 129.457031 L 92.894531 129.457031 L 92.894531 88.953125 L 109.730469 88.953125 L 109.730469 68.800781 L 92.558594 68.800781 L 92.558594 52.371094 L 111.757813 52.371094 L 111.757813 32.082031 L 80.046875 32.082031 L 80.046875 129.457031 "/>
<path style=" stroke:none;fill-rule:evenodd;fill:rgb(98.399353%,85.899353%,16.499329%);fill-opacity:1;" d="M 120.210938 129.457031 L 133.058594 129.457031 L 133.058594 88.953125 L 149.964844 88.953125 L 149.964844 68.800781 L 132.722656 68.800781 L 132.722656 52.371094 L 151.921875 52.371094 L 151.921875 32.082031 L 120.210938 32.082031 L 120.210938 129.457031 "/>
<path style=" stroke:none;fill-rule:evenodd;fill:rgb(98.399353%,85.899353%,16.499329%);fill-opacity:1;" d="M 274.246094 32.019531 C 274.179688 32.019531 274.179688 32.019531 274.179688 32.019531 L 254.976563 32.019531 L 254.976563 129.457031 L 268.976563 129.457031 L 268.976563 90.640625 L 274.179688 106.058594 L 274.246094 106.195313 L 274.246094 70.558594 C 274.179688 70.558594 274.179688 70.628906 274.179688 70.628906 L 268.84375 70.628906 L 268.84375 49.527344 L 271.953125 49.527344 C 272.902344 49.527344 273.578125 49.730469 274.179688 49.730469 C 274.179688 49.730469 274.179688 49.730469 274.246094 49.730469 Z M 291.359375 74.820313 C 292.441406 71.101563 293.050781 65.625 293.050781 58.660156 C 292.910156 50.203125 291.023438 43.78125 288.652344 39.65625 C 286.082031 36.007813 281.210938 32.152344 274.246094 32.019531 L 274.246094 49.730469 C 275.601563 50.066406 276.410156 50.746094 277.019531 51.355469 C 278.78125 52.839844 279.589844 55.820313 279.589844 61.160156 C 279.589844 66.09375 278.441406 67.789063 276.890625 69.273438 C 275.941406 70.085938 275.128906 70.425781 274.246094 70.558594 L 274.246094 106.195313 L 282.300781 129.457031 L 297.175781 129.457031 L 282.300781 85.980469 C 285.949219 83.539063 289.257813 81.921875 291.359375 74.820313 "/>
<path style=" stroke:none;fill-rule:evenodd;fill:rgb(98.399353%,85.899353%,16.499329%);fill-opacity:1;" d="M 395.964844 35.535156 L 395.964844 38.171875 C 395.894531 38.171875 395.828125 38.171875 395.761719 38.171875 C 395.628906 38.171875 395.488281 38.097656 395.289063 38.097656 L 394.546875 38.097656 L 394.546875 41.214844 L 395.761719 41.214844 C 395.828125 41.144531 395.894531 41.144531 395.964844 41.144531 L 395.964844 46.691406 L 395.761719 46.351563 L 394.546875 44.121094 L 394.546875 49.730469 L 391.234375 49.730469 L 391.234375 35.535156 L 395.761719 35.535156 C 395.828125 35.535156 395.894531 35.535156 395.964844 35.535156 Z M 395.964844 32.152344 C 390.082031 32.152344 385.28125 36.953125 385.28125 42.835938 C 385.28125 48.789063 390.082031 53.585938 395.964844 53.585938 L 395.964844 52.101563 C 390.894531 52.101563 386.703125 47.972656 386.703125 42.835938 C 386.703125 37.765625 390.894531 33.570313 395.964844 33.570313 Z M 395.964844 46.691406 L 395.964844 41.144531 C 396.101563 41.144531 396.300781 41.078125 396.441406 41.011719 C 396.777344 40.738281 397.050781 40.535156 397.050781 39.792969 C 397.050781 39.046875 396.910156 38.574219 396.441406 38.371094 C 396.371094 38.304688 396.234375 38.234375 395.964844 38.171875 L 395.964844 35.535156 C 397.519531 35.601563 398.671875 36.140625 399.210938 36.679688 C 399.75 37.289063 400.222656 38.234375 400.292969 39.453125 C 400.292969 40.46875 400.15625 41.277344 399.890625 41.824219 C 399.347656 42.835938 398.601563 43.039063 397.71875 43.445313 L 401.238281 49.730469 L 397.71875 49.730469 Z M 395.964844 32.152344 L 395.964844 33.570313 C 401.105469 33.570313 405.296875 37.765625 405.296875 42.835938 C 405.296875 47.972656 401.105469 52.101563 395.964844 52.101563 L 395.964844 53.585938 C 401.917969 53.585938 406.714844 48.789063 406.714844 42.835938 C 406.714844 36.953125 401.917969 32.152344 395.964844 32.152344 "/>
<path style=" stroke:none;fill-rule:evenodd;fill:rgb(98.399353%,85.899353%,16.499329%);fill-opacity:1;" d="M 51.710938 31.945313 L 51.710938 52.230469 C 49.347656 52.230469 47.25 52.636719 45.695313 57.777344 C 44.136719 62.847656 43.191406 72.726563 43.191406 80.570313 C 43.191406 88.339844 44.136719 98.210938 45.695313 103.359375 C 47.25 108.496094 49.347656 108.902344 51.710938 108.902344 L 51.710938 129.183594 C 44.480469 129.183594 37.988281 125.464844 33.996094 113.359375 C 31.359375 105.316406 29.804688 91.25 29.804688 80.570313 C 29.804688 70.085938 31.359375 56.226563 33.863281 48.242188 C 37.847656 35.867188 44.34375 32.019531 51.710938 31.945313 Z M 51.710938 31.945313 C 59.015625 31.8125 65.578125 35.667969 69.5 48.109375 C 72.066406 56.023438 73.554688 70.019531 73.554688 80.570313 C 73.554688 91.316406 72 105.445313 69.359375 113.425781 C 65.371094 125.53125 58.949219 129.183594 51.710938 129.183594 L 51.710938 108.902344 C 54.148438 108.902344 56.3125 108.289063 57.867188 102.878906 C 59.289063 97.8125 60.234375 88.144531 60.234375 80.570313 C 60.234375 72.726563 59.21875 62.847656 57.734375 57.777344 C 56.175781 52.636719 54.011719 52.230469 51.710938 52.230469 L 51.710938 31.945313 "/>
<path style=" stroke:none;fill-rule:evenodd;fill:rgb(98.399353%,85.899353%,16.499329%);fill-opacity:1;" d="M 226.78125 129.183594 C 219.542969 129.183594 213.054688 125.464844 209.0625 113.359375 C 206.496094 105.316406 204.941406 91.25 204.941406 80.570313 C 204.941406 70.085938 206.425781 56.226563 208.929688 48.242188 C 212.917969 35.867188 219.410156 32.019531 226.78125 31.945313 L 226.78125 52.230469 C 224.410156 52.230469 222.324219 52.636719 220.765625 57.777344 C 219.207031 62.847656 218.257813 72.726563 218.257813 80.570313 C 218.257813 88.339844 219.207031 98.210938 220.765625 103.359375 C 222.324219 108.496094 224.410156 108.902344 226.78125 108.902344 Z M 226.78125 31.945313 C 234.082031 31.8125 240.644531 35.667969 244.5625 48.109375 C 247.132813 56.023438 248.621094 70.019531 248.621094 80.570313 C 248.621094 91.316406 247.066406 105.445313 244.429688 113.425781 C 240.441406 125.53125 234.019531 129.183594 226.78125 129.183594 L 226.78125 108.902344 C 229.148438 108.902344 231.378906 108.289063 232.933594 102.878906 C 234.355469 97.8125 235.300781 88.144531 235.300781 80.570313 C 235.300781 72.726563 234.289063 62.847656 232.796875 57.777344 C 231.238281 52.636719 229.078125 52.230469 226.78125 52.230469 L 226.78125 31.945313 "/>
<path style=" stroke:none;fill-rule:evenodd;fill:rgb(98.399353%,85.899353%,16.499329%);fill-opacity:1;" d="M 178.429688 31.945313 C 185.734375 31.8125 192.226563 35.667969 196.214844 48.109375 C 197.769531 52.910156 198.921875 59.878906 199.597656 66.976563 L 186.140625 66.976563 C 185.667969 63.324219 185.125 60.078125 184.453125 57.777344 C 182.898438 52.636719 180.730469 52.230469 178.429688 52.230469 C 176.0625 52.230469 173.902344 52.636719 172.414063 57.777344 C 170.859375 62.847656 169.910156 72.726563 169.910156 80.570313 C 169.910156 88.339844 170.859375 98.210938 172.414063 103.359375 C 173.902344 108.496094 176.0625 108.902344 178.429688 108.902344 C 180.800781 108.902344 183.03125 108.289063 184.589844 102.878906 C 185.195313 100.648438 185.734375 97.609375 186.074219 94.292969 L 199.597656 94.292969 C 198.855469 101.53125 197.703125 108.5625 196.078125 113.425781 C 192.09375 125.53125 185.667969 129.183594 178.429688 129.183594 C 171.128906 129.183594 164.707031 125.464844 160.710938 113.359375 C 158.078125 105.316406 156.523438 91.25 156.523438 80.570313 C 156.523438 70.085938 158.011719 56.226563 160.582031 48.242188 C 164.566406 35.867188 171.0625 32.019531 178.429688 31.945313 "/>
<path style=" stroke:none;fill-rule:evenodd;fill:rgb(98.399353%,85.899353%,16.499329%);fill-opacity:1;" d="M 330.648438 80.5 C 327.46875 76.78125 323.746094 73.535156 320.566406 69.882813 C 317.117188 65.828125 309.886719 52.777344 320.4375 52.101563 C 322.800781 51.964844 324.832031 52.707031 326.046875 55.886719 C 326.453125 56.628906 326.855469 58.117188 327.261719 59.878906 L 341.054688 59.878906 C 340.179688 53.246094 338.691406 46.960938 335.851563 41.550781 C 332.605469 35.535156 328.210938 31.613281 320.566406 31.742188 C 315.089844 31.878906 309.609375 33.910156 305.492188 41.480469 C 302.789063 45.945313 301.703125 51.285156 301.632813 55.953125 C 302.042969 61.972656 302.246094 65.285156 304.746094 71.371094 C 306.363281 75.222656 308.398438 78 310.492188 80.5 L 310.5625 80.5 C 313.742188 84.222656 317.457031 87.464844 320.703125 91.046875 C 325.167969 96.457031 327.535156 101.664063 325.980469 105.113281 C 325.097656 107.347656 323.679688 108.699219 320.769531 108.902344 C 318.410156 109.03125 316.378906 108.289063 315.160156 105.050781 C 314.824219 104.367188 314.414063 103.019531 314.078125 101.457031 C 314.078125 101.457031 314.078125 101.390625 314.011719 101.390625 C 314.011719 101.324219 314.011719 101.195313 314.011719 101.125 C 313.671875 99.773438 313.402344 98.289063 313.195313 96.726563 L 299.539063 96.726563 C 299.742188 98.210938 299.945313 99.703125 300.148438 101.125 C 301.027344 107.746094 302.511719 113.96875 305.355469 119.449219 C 308.597656 125.402344 313 129.394531 320.703125 129.257813 C 326.113281 129.117188 331.589844 127.089844 335.714844 119.449219 C 338.421875 114.984375 339.570313 109.710938 339.570313 105.050781 C 339.164063 99.027344 338.964844 95.648438 336.464844 89.5625 C 334.898438 85.707031 332.8125 83.003906 330.714844 80.5 L 330.648438 80.5 "/>
<path style=" stroke:none;fill-rule:evenodd;fill:rgb(98.399353%,85.899353%,16.499329%);fill-opacity:1;" d="M 376.222656 80.5 C 372.976563 76.78125 369.257813 73.535156 366.082031 69.882813 C 362.625 65.828125 355.390625 52.777344 366.011719 52.101563 C 368.3125 51.964844 370.410156 52.707031 371.554688 55.886719 C 371.960938 56.628906 372.367188 58.117188 372.769531 59.878906 L 386.636719 59.878906 C 385.6875 53.246094 384.203125 46.960938 381.359375 41.550781 C 378.179688 35.535156 373.71875 31.613281 366.082031 31.742188 C 360.601563 31.878906 355.121094 33.910156 351.0625 41.480469 C 348.289063 45.945313 347.210938 51.285156 347.210938 55.953125 C 347.550781 61.972656 347.820313 65.285156 350.324219 71.371094 C 351.875 75.222656 353.972656 78 356.070313 80.5 C 359.25 84.222656 362.96875 87.464844 366.210938 91.046875 C 370.742188 96.457031 373.042969 101.664063 371.554688 105.113281 C 370.609375 107.347656 369.1875 108.699219 366.277344 108.902344 C 363.914063 109.03125 361.882813 108.289063 360.734375 105.050781 C 360.332031 104.367188 359.921875 103.019531 359.589844 101.457031 L 359.589844 101.390625 C 359.519531 101.324219 359.519531 101.195313 359.519531 101.125 C 359.179688 99.773438 358.976563 98.289063 358.710938 96.726563 L 345.113281 96.726563 C 345.25 98.210938 345.457031 99.703125 345.652344 101.125 C 346.53125 107.746094 348.09375 113.96875 350.863281 119.449219 C 354.109375 125.402344 358.507813 129.394531 366.210938 129.257813 C 371.621094 129.117188 377.101563 127.089844 381.226563 119.449219 C 383.925781 114.984375 385.074219 109.710938 385.074219 105.050781 C 384.671875 99.027344 384.46875 95.648438 381.96875 89.5625 C 380.410156 85.707031 378.320313 83.003906 376.222656 80.5 "/>
</g>
</svg>
